<svg width="640" height="640" viewBox="0 0 640 640" fill="none" xmlns="http://www.w3.org/2000/svg">
<path opacity="0.5" d="M346.468 124.118C258.074 163.827 218.624 267.724 258.402 356.147C298.179 444.57 401.96 484.033 490.354 444.243C578.748 404.452 618.198 300.637 578.421 212.214C538.644 123.791 434.781 84.4097 346.468 124.118Z" fill="url(#paint0_linear)"/>
<path d="M127.099 147.339C107.657 156.111 98.9579 178.949 107.733 198.384C116.508 217.819 139.354 226.516 158.795 217.744C178.237 208.972 186.936 186.134 178.161 166.698C169.461 147.263 146.54 138.567 127.099 147.339Z" fill="url(#paint1_linear)"/>
<path d="M389.208 316.623C378.978 321.208 374.394 333.244 379.059 343.478C383.643 353.712 395.674 358.297 405.905 353.63C416.136 349.045 420.719 337.01 416.054 326.776C411.389 316.623 399.357 312.039 389.208 316.623Z" fill="url(#paint2_linear)"/>
<path fill-rule="evenodd" clip-rule="evenodd" d="M267.241 204.436C274.116 204.682 281.564 217.536 286.066 238.577H248.007C252.509 217.618 259.875 204.764 266.75 204.436H267.241ZM288.685 224.331C290.076 228.671 291.304 233.501 292.368 238.577H333.209C320.932 220.811 301.617 208.284 279.272 205.173C282.546 209.185 285.738 215.243 288.685 224.331ZM246.779 244.8H287.293C289.094 255.116 290.24 266.987 290.322 280.169H243.669C243.833 267.069 244.979 255.116 246.779 244.8ZM266.996 361.878C259.957 361.878 252.427 348.697 247.844 327.164H286.148C281.564 348.697 274.034 361.878 266.996 361.878ZM290.322 286.309H243.669C243.833 299.082 244.897 310.789 246.698 320.942H287.375C289.094 310.789 290.24 299.163 290.322 286.309ZM337.547 320.942H293.677C295.396 310.298 296.46 298.508 296.542 286.309H347.041C346.55 298.836 343.195 310.626 337.547 320.942ZM296.624 280.169C296.46 267.642 295.396 255.689 293.595 244.8H337.22C343.113 255.361 346.632 267.397 347.123 280.169H296.624ZM199.145 320.942H240.395C238.595 310.298 237.613 298.508 237.449 286.309H189.569C190.06 298.836 193.497 310.626 199.145 320.942ZM241.541 327.164C242.687 332.486 243.915 337.48 245.388 341.983C248.253 350.825 251.363 356.884 254.555 360.814C233.029 357.048 214.614 344.603 202.91 327.164H241.541ZM292.532 327.164C291.468 332.486 290.158 337.48 288.685 341.983C285.739 351.235 282.383 357.293 279.191 361.305C301.944 358.194 321.505 345.34 333.782 327.164H292.532ZM241.623 238.577C242.687 233.501 243.915 228.752 245.306 224.331C248.171 215.571 251.199 209.594 254.309 205.664C233.193 209.43 215.023 221.629 203.319 238.577H241.623ZM189.651 280.169C190.142 267.315 193.661 255.361 199.554 244.8H240.559C238.677 255.689 237.694 267.724 237.531 280.169H189.651Z" fill="url(#paint3_linear)"/>
<path d="M284.756 384.312C241.05 403.961 221.489 455.378 241.132 499.098C260.775 542.818 312.175 562.386 355.88 542.736C399.586 523.087 419.148 471.67 399.505 427.95C379.861 384.23 328.462 364.662 284.756 384.312ZM338.529 504.092C316.103 514.163 289.83 504.174 279.763 481.741C269.696 459.307 279.682 433.026 302.107 422.956C324.533 412.885 350.806 422.874 360.873 445.307C370.94 467.74 360.955 494.022 338.529 504.092Z" fill="url(#paint4_linear)"/>
<path d="M213.387 278.449H62.2983V471.67H213.387V278.449Z" fill="url(#paint5_linear)"/>
<path opacity="0.5" d="M282.546 402.242H213.632V393.972L197.344 405.353L213.632 416.733V408.464H282.546V402.242Z" fill="url(#paint6_linear)"/>
<path d="M213.386 422.464H281.892V414.195L298.179 425.576L281.892 436.874V428.687H213.386V422.464Z" fill="url(#paint7_linear)"/>
<path opacity="0.5" fill-rule="evenodd" clip-rule="evenodd" d="M100.193 324.298C100.193 327.011 97.994 329.211 95.2819 329.211C92.5697 329.211 90.3711 327.011 90.3711 324.298C90.3711 321.585 92.5697 319.386 95.2819 319.386C97.994 319.386 100.193 321.585 100.193 324.298ZM112.797 321.023H181.712V327.573H112.797V321.023ZM181.712 341.246H112.797V347.796H181.712V341.246ZM100.193 344.521C100.193 347.234 97.994 349.433 95.2819 349.433C92.5697 349.433 90.3711 347.234 90.3711 344.521C90.3711 341.808 92.5697 339.609 95.2819 339.609C97.994 339.609 100.193 341.808 100.193 344.521ZM181.712 361.469H112.797V368.019H181.712V361.469ZM100.193 364.744C100.193 367.457 97.994 369.656 95.2819 369.656C92.5697 369.656 90.3711 367.457 90.3711 364.744C90.3711 362.031 92.5697 359.831 95.2819 359.831C97.994 359.831 100.193 362.031 100.193 364.744ZM181.712 381.692H112.797V388.241H181.712V381.692ZM100.193 384.966C100.193 387.68 97.994 389.879 95.2819 389.879C92.5697 389.879 90.3711 387.68 90.3711 384.966C90.3711 382.253 92.5697 380.054 95.2819 380.054C97.994 380.054 100.193 382.253 100.193 384.966ZM181.712 401.914H112.797V408.464H181.712V401.914ZM100.193 405.189C100.193 407.902 97.994 410.102 95.2819 410.102C92.5697 410.102 90.3711 407.902 90.3711 405.189C90.3711 402.476 92.5697 400.277 95.2819 400.277C97.994 400.277 100.193 402.476 100.193 405.189ZM181.712 422.301H112.797V428.851H181.712V422.301ZM100.193 425.576C100.193 428.289 97.994 430.488 95.2819 430.488C92.5697 430.488 90.3711 428.289 90.3711 425.576C90.3711 422.863 92.5697 420.663 95.2819 420.663C97.994 420.663 100.193 422.863 100.193 425.576Z" fill="url(#paint8_linear)"/>
<defs>
<linearGradient id="paint0_linear" x1="236.371" y1="176.987" x2="536.549" y2="387.95" gradientUnits="userSpaceOnUse">
<stop offset="0.380208" stop-color="#3FE9AC" stop-opacity="0"/>
<stop offset="1" stop-color="#3FE9AC" stop-opacity="0.3"/>
</linearGradient>
<linearGradient id="paint1_linear" x1="114.57" y1="234.764" x2="204.355" y2="175.98" gradientUnits="userSpaceOnUse">
<stop stop-color="white" stop-opacity="0"/>
<stop offset="0.479167" stop-color="#F44336" stop-opacity="0.1"/>
<stop offset="1" stop-color="#F44336" stop-opacity="0.3"/>
<stop offset="1" stop-color="#F44336" stop-opacity="0.3"/>
</linearGradient>
<linearGradient id="paint2_linear" x1="382.628" y1="362.61" x2="429.848" y2="331.678" gradientUnits="userSpaceOnUse">
<stop stop-color="white" stop-opacity="0"/>
<stop offset="0.479167" stop-color="#F44336" stop-opacity="0.1"/>
<stop offset="1" stop-color="#F44336" stop-opacity="0.3"/>
<stop offset="1" stop-color="#F44336" stop-opacity="0.3"/>
</linearGradient>
<linearGradient id="paint3_linear" x1="157.802" y1="228.332" x2="382.888" y2="340.15" gradientUnits="userSpaceOnUse">
<stop stop-color="#8F5FEB" stop-opacity="0.2"/>
<stop offset="1" stop-color="#7C57C2" stop-opacity="0"/>
</linearGradient>
<linearGradient id="paint4_linear" x1="297.5" y1="423" x2="426.547" y2="601.966" gradientUnits="userSpaceOnUse">
<stop stop-color="#7C57C2" stop-opacity="0"/>
<stop offset="1" stop-color="#8F5FEB" stop-opacity="0.2"/>
</linearGradient>
<linearGradient id="paint5_linear" x1="213" y1="381.5" x2="64.003" y2="395.774" gradientUnits="userSpaceOnUse">
<stop stop-color="#05ACFF" stop-opacity="0"/>
<stop offset="1" stop-color="#05ACFF" stop-opacity="0.2"/>
</linearGradient>
<linearGradient id="paint6_linear" x1="195.758" y1="398.402" x2="209.494" y2="434.549" gradientUnits="userSpaceOnUse">
<stop offset="0.1875" stop-color="#3FE9AC" stop-opacity="0.3"/>
<stop offset="1" stop-color="#3FE9AC" stop-opacity="0"/>
</linearGradient>
<linearGradient id="paint7_linear" x1="211.808" y1="418.609" x2="225.507" y2="454.614" gradientUnits="userSpaceOnUse">
<stop offset="0.380208" stop-color="#3FE9AC" stop-opacity="0"/>
<stop offset="1" stop-color="#3FE9AC" stop-opacity="0.3"/>
</linearGradient>
<linearGradient id="paint8_linear" x1="90" y1="366" x2="184.5" y2="365.976" gradientUnits="userSpaceOnUse">
<stop stop-color="#05ACFF" stop-opacity="0.5"/>
<stop offset="1" stop-color="#05ACFF" stop-opacity="0"/>
</linearGradient>
</defs>
</svg>
