<svg width="228" height="224" viewBox="0 0 228 224" fill="none" xmlns="http://www.w3.org/2000/svg">
<rect width="228" height="224" rx="4" fill="#F5F7FA"/>
<g clip-path="url(#clip0)">
<path d="M119 26L126.1 40.4L141.9 42.7C143.4 42.9 144 44.8 142.9 45.9L131.5 57L134.2 72.8C134.5 74.3 132.9 75.5 131.5 74.8L117.3 67.3L103.1 74.8C101.7 75.5 100.1 74.4 100.4 72.8L103.2 57L91.6998 45.9C90.5998 44.8 91.1998 43 92.6998 42.7L108.5 40.4L115.7 26C116.3 24.7 118.3 24.7 119 26Z" fill="url(#paint0_linear)" fill-opacity="0.5"/>
<path d="M94.8 62L92.1333 58.7368C91.9556 58.5263 91.9556 58.2105 92.1333 58C92.3111 57.7895 92.5778 57.7895 92.7556 58L94.7111 60.5263L99.2444 55.1579C99.4222 54.9474 99.6889 54.9474 99.8667 55.1579C100.044 55.3684 100.044 55.6842 99.8667 55.8947L94.8 62Z" fill="#F44336"/>
<path d="M101.2 74.8L96.1 72.3L91 74.8V67.5C91 67.2 91.2 67 91.5 67C91.8 67 92 67.2 92 67.5V73.2L96.1 71.2L100.2 73.2V67.5C100.2 67.2 100.4 67 100.7 67C101 67 101.2 67.2 101.2 67.5V74.8Z" fill="#F44336"/>
<path d="M96.0998 69.1C90.0998 69.1 85.2998 64.3 85.2998 58.3C85.2998 52.3 90.0998 47.5 96.0998 47.5C102.1 47.5 106.9 52.3 106.9 58.3C106.9 64.2 102.1 69.1 96.0998 69.1ZM96.0998 48.5C90.6998 48.5 86.2998 52.9 86.2998 58.3C86.2998 63.7 90.6998 68.1 96.0998 68.1C101.5 68.1 105.9 63.7 105.9 58.3C105.9 52.9 101.5 48.5 96.0998 48.5Z" fill="#F44336"/>
</g>
<path d="M77.0625 110V105.43H81.7891V103.75H77.0625V100.469H82.2344V98.7266H75.0469V110H77.0625ZM88.9531 110.172C91.5078 110.172 93.0625 108.5 93.0625 105.727C93.0625 102.961 91.5 101.281 88.9531 101.281C86.4141 101.281 84.8438 102.969 84.8438 105.727C84.8438 108.5 86.3906 110.172 88.9531 110.172ZM88.9531 108.547C87.6016 108.547 86.8281 107.516 86.8281 105.727C86.8281 103.945 87.6016 102.906 88.9531 102.906C90.2969 102.906 91.0703 103.945 91.0703 105.727C91.0703 107.516 90.3047 108.547 88.9531 108.547ZM103.453 101.453H101.516V106.43C101.516 107.695 100.828 108.469 99.5703 108.469C98.4141 108.469 97.875 107.828 97.875 106.523V101.453H95.9375V107.008C95.9375 109.008 97.0312 110.172 98.8984 110.172C100.203 110.172 101.039 109.617 101.453 108.641H101.586V110H103.453V101.453ZM106.828 110H108.766V105.023C108.766 103.766 109.492 102.969 110.648 102.969C111.828 102.969 112.375 103.625 112.375 104.93V110H114.312V104.469C114.312 102.43 113.273 101.281 111.367 101.281C110.094 101.281 109.234 101.867 108.828 102.82H108.695V101.453H106.828V110ZM120.703 110.141C121.891 110.141 122.875 109.586 123.359 108.648H123.492V110H125.367V98.1484H123.43V102.812H123.297C122.844 101.875 121.875 101.312 120.703 101.312C118.547 101.312 117.188 103.016 117.188 105.719C117.188 108.438 118.539 110.141 120.703 110.141ZM121.305 102.961C122.633 102.961 123.453 104.023 123.453 105.727C123.453 107.445 122.641 108.492 121.305 108.492C119.977 108.492 119.172 107.453 119.172 105.727C119.172 104.008 119.984 102.961 121.305 102.961ZM132.398 102.82C133.562 102.82 134.328 103.633 134.367 104.898H130.344C130.43 103.648 131.242 102.82 132.398 102.82ZM134.383 107.648C134.102 108.281 133.438 108.633 132.477 108.633C131.203 108.633 130.383 107.742 130.336 106.32V106.219H136.305V105.594C136.305 102.898 134.844 101.281 132.406 101.281C129.93 101.281 128.391 103.008 128.391 105.758C128.391 108.508 129.906 110.172 132.422 110.172C134.438 110.172 135.852 109.203 136.219 107.648H134.383ZM139.25 110H141.188V105.062C141.188 103.867 142.062 103.086 143.32 103.086C143.648 103.086 144.164 103.141 144.312 103.195V101.398C144.133 101.344 143.789 101.312 143.508 101.312C142.406 101.312 141.484 101.938 141.25 102.781H141.117V101.453H139.25V110ZM146.523 103.898C146.523 105.188 147.297 105.945 148.938 106.32L150.453 106.672C151.266 106.852 151.633 107.156 151.633 107.641C151.633 108.273 150.953 108.703 149.977 108.703C149.008 108.703 148.406 108.328 148.219 107.695H146.305C146.453 109.25 147.797 110.172 149.93 110.172C152.062 110.172 153.57 109.078 153.57 107.438C153.57 106.18 152.812 105.477 151.18 105.109L149.672 104.766C148.812 104.57 148.406 104.273 148.406 103.789C148.406 103.172 149.07 102.75 149.953 102.75C150.859 102.75 151.43 103.133 151.57 103.734H153.391C153.25 102.18 151.977 101.281 149.945 101.281C147.93 101.281 146.523 102.352 146.523 103.898Z" fill="#202020"/>
<path d="M52.8125 135.641V134.266H48.2422V135.5H51.4141V135.773C51.4141 137.68 50.0469 138.969 48.0312 138.969C45.7656 138.969 44.3594 137.203 44.3594 134.359C44.3594 131.555 45.7891 129.758 48.0234 129.758C49.6953 129.758 50.8281 130.562 51.3125 132.086H52.7422C52.3359 129.852 50.5234 128.461 48.0234 128.461C44.9375 128.461 42.9141 130.797 42.9141 134.359C42.9141 137.969 44.9062 140.266 48.0234 140.266C50.9062 140.266 52.8125 138.422 52.8125 135.641ZM58.4922 132.617C59.8281 132.617 60.7188 133.602 60.75 135.094H56.1094C56.2109 133.602 57.1484 132.617 58.4922 132.617ZM60.7109 137.82C60.3594 138.562 59.625 138.961 58.5391 138.961C57.1094 138.961 56.1797 137.906 56.1094 136.242V136.18H62.1641V135.664C62.1641 133.047 60.7812 131.43 58.5078 131.43C56.1953 131.43 54.7109 133.148 54.7109 135.797C54.7109 138.461 56.1719 140.148 58.5078 140.148C60.3516 140.148 61.6484 139.266 62.0547 137.82H60.7109ZM64.8359 129.398V131.578H63.4766V132.703H64.8359V137.812C64.8359 139.422 65.5312 140.062 67.2656 140.062C67.5312 140.062 67.7891 140.031 68.0547 139.984V138.852C67.8047 138.875 67.6719 138.883 67.4297 138.883C66.5547 138.883 66.1797 138.461 66.1797 137.469V132.703H68.0547V131.578H66.1797V129.398H64.8359ZM75.1641 140H76.5078V132.703H78.4375V131.578H76.5078V130.68C76.5078 129.758 76.9141 129.289 77.8828 129.289C78.125 129.289 78.3516 129.297 78.5156 129.328V128.234C78.2344 128.18 77.9375 128.156 77.6094 128.156C76.0078 128.156 75.1641 128.961 75.1641 130.641V131.578H73.7656V132.703H75.1641V140ZM80.4297 140H81.7734V131.578H80.4297V140ZM81.1016 129.867C81.6172 129.867 82.0391 129.445 82.0391 128.93C82.0391 128.414 81.6172 127.992 81.1016 127.992C80.5859 127.992 80.1641 128.414 80.1641 128.93C80.1641 129.445 80.5859 129.867 81.1016 129.867ZM84.3359 140H85.6797V135.016C85.6797 133.539 86.5469 132.641 87.8906 132.641C89.2344 132.641 89.875 133.359 89.875 134.875V140H91.2188V134.547C91.2188 132.547 90.1641 131.43 88.2734 131.43C86.9844 131.43 86.1641 131.977 85.7422 132.906H85.6172V131.578H84.3359V140ZM96.2734 138.969C95.2969 138.969 94.5703 138.469 94.5703 137.609C94.5703 136.766 95.1328 136.32 96.4141 136.234L98.6797 136.086V136.859C98.6797 138.062 97.6562 138.969 96.2734 138.969ZM96.0234 140.148C97.1484 140.148 98.0703 139.656 98.6172 138.758H98.7422V140H100.023V134.234C100.023 132.484 98.875 131.43 96.8203 131.43C95.0234 131.43 93.6953 132.32 93.5156 133.672H94.875C95.0625 133.008 95.7656 132.625 96.7734 132.625C98.0312 132.625 98.6797 133.195 98.6797 134.234V135L96.25 135.148C94.2891 135.266 93.1797 136.133 93.1797 137.641C93.1797 139.18 94.3906 140.148 96.0234 140.148ZM102.508 140H103.852V135.016C103.852 133.539 104.719 132.641 106.062 132.641C107.406 132.641 108.047 133.359 108.047 134.875V140H109.391V134.547C109.391 132.547 108.336 131.43 106.445 131.43C105.156 131.43 104.336 131.977 103.914 132.906H103.789V131.578H102.508V140ZM118.82 134.156C118.586 132.656 117.336 131.43 115.289 131.43C112.93 131.43 111.43 133.133 111.43 135.758C111.43 138.438 112.938 140.148 115.297 140.148C117.32 140.148 118.578 139.008 118.82 137.461H117.461C117.211 138.414 116.422 138.938 115.289 138.938C113.789 138.938 112.82 137.703 112.82 135.758C112.82 133.852 113.773 132.641 115.289 132.641C116.5 132.641 117.242 133.32 117.461 134.156H118.82ZM120.836 140H122.18V131.578H120.836V140ZM121.508 129.867C122.023 129.867 122.445 129.445 122.445 128.93C122.445 128.414 122.023 127.992 121.508 127.992C120.992 127.992 120.57 128.414 120.57 128.93C120.57 129.445 120.992 129.867 121.508 129.867ZM124.742 140H126.086V135.016C126.086 133.539 126.953 132.641 128.297 132.641C129.641 132.641 130.281 133.359 130.281 134.875V140H131.625V134.547C131.625 132.547 130.57 131.43 128.68 131.43C127.391 131.43 126.57 131.977 126.148 132.906H126.023V131.578H124.742V140ZM137.492 138.688C135.93 138.688 135.055 137.5 135.055 135.664C135.055 133.828 135.93 132.641 137.492 132.641C139.047 132.641 139.992 133.828 139.992 135.664C139.992 137.5 139.055 138.688 137.492 138.688ZM137.555 143.234C139.852 143.234 141.305 142.031 141.305 140.148V131.578H140.023V132.914H139.898C139.414 132.008 138.375 131.43 137.195 131.43C135.031 131.43 133.664 133.141 133.664 135.664C133.664 138.188 135.016 139.875 137.195 139.875C138.352 139.875 139.305 139.352 139.836 138.422H139.961V140.078C139.961 141.32 139.062 142.062 137.555 142.062C136.344 142.062 135.594 141.617 135.445 140.93H134.023C134.227 142.32 135.523 143.234 137.555 143.234ZM158.945 131.578H157.594L155.938 138.312H155.812L153.93 131.578H152.641L150.758 138.312H150.633L148.977 131.578H147.617L149.977 140H151.336L153.211 133.484H153.336L155.219 140H156.586L158.945 131.578ZM160.82 140H162.164V135.016C162.164 133.594 162.992 132.641 164.5 132.641C165.773 132.641 166.445 133.383 166.445 134.875V140H167.789V134.547C167.789 132.57 166.664 131.43 164.883 131.43C163.594 131.43 162.711 131.977 162.289 132.906H162.164V128.234H160.82V140ZM170.273 140H171.617V131.578H170.273V140ZM170.945 129.867C171.461 129.867 171.883 129.445 171.883 128.93C171.883 128.414 171.461 127.992 170.945 127.992C170.43 127.992 170.008 128.414 170.008 128.93C170.008 129.445 170.43 129.867 170.945 129.867ZM174.258 140H175.602V128.234H174.258V140ZM181.57 132.617C182.906 132.617 183.797 133.602 183.828 135.094H179.188C179.289 133.602 180.227 132.617 181.57 132.617ZM183.789 137.82C183.438 138.562 182.703 138.961 181.617 138.961C180.188 138.961 179.258 137.906 179.188 136.242V136.18H185.242V135.664C185.242 133.047 183.859 131.43 181.586 131.43C179.273 131.43 177.789 133.148 177.789 135.797C177.789 138.461 179.25 140.148 181.586 140.148C183.43 140.148 184.727 139.266 185.133 137.82H183.789ZM62.7891 168H64.1328V162.781C64.1328 161.594 65.0625 160.734 66.3438 160.734C66.6094 160.734 67.0938 160.781 67.2031 160.812V159.469C67.0312 159.445 66.75 159.43 66.5312 159.43C65.4141 159.43 64.4453 160.008 64.1953 160.828H64.0703V159.578H62.7891V168ZM72.0078 160.617C73.3438 160.617 74.2344 161.602 74.2656 163.094H69.625C69.7266 161.602 70.6641 160.617 72.0078 160.617ZM74.2266 165.82C73.875 166.562 73.1406 166.961 72.0547 166.961C70.625 166.961 69.6953 165.906 69.625 164.242V164.18H75.6797V163.664C75.6797 161.047 74.2969 159.43 72.0234 159.43C69.7109 159.43 68.2266 161.148 68.2266 163.797C68.2266 166.461 69.6875 168.148 72.0234 168.148C73.8672 168.148 75.1641 167.266 75.5703 165.82H74.2266ZM78.3516 157.398V159.578H76.9922V160.703H78.3516V165.812C78.3516 167.422 79.0469 168.062 80.7812 168.062C81.0469 168.062 81.3047 168.031 81.5703 167.984V166.852C81.3203 166.875 81.1875 166.883 80.9453 166.883C80.0703 166.883 79.6953 166.461 79.6953 165.469V160.703H81.5703V159.578H79.6953V157.398H78.3516ZM86.1953 166.969C85.2188 166.969 84.4922 166.469 84.4922 165.609C84.4922 164.766 85.0547 164.32 86.3359 164.234L88.6016 164.086V164.859C88.6016 166.062 87.5781 166.969 86.1953 166.969ZM85.9453 168.148C87.0703 168.148 87.9922 167.656 88.5391 166.758H88.6641V168H89.9453V162.234C89.9453 160.484 88.7969 159.43 86.7422 159.43C84.9453 159.43 83.6172 160.32 83.4375 161.672H84.7969C84.9844 161.008 85.6875 160.625 86.6953 160.625C87.9531 160.625 88.6016 161.195 88.6016 162.234V163L86.1719 163.148C84.2109 163.266 83.1016 164.133 83.1016 165.641C83.1016 167.18 84.3125 168.148 85.9453 168.148ZM92.4609 168H93.8047V159.578H92.4609V168ZM93.1328 157.867C93.6484 157.867 94.0703 157.445 94.0703 156.93C94.0703 156.414 93.6484 155.992 93.1328 155.992C92.6172 155.992 92.1953 156.414 92.1953 156.93C92.1953 157.445 92.6172 157.867 93.1328 157.867ZM96.3672 168H97.7109V163.016C97.7109 161.539 98.5781 160.641 99.9219 160.641C101.266 160.641 101.906 161.359 101.906 162.875V168H103.25V162.547C103.25 160.547 102.195 159.43 100.305 159.43C99.0156 159.43 98.1953 159.977 97.7734 160.906H97.6484V159.578H96.3672V168ZM105.742 168H107.086V159.578H105.742V168ZM106.414 157.867C106.93 157.867 107.352 157.445 107.352 156.93C107.352 156.414 106.93 155.992 106.414 155.992C105.898 155.992 105.477 156.414 105.477 156.93C105.477 157.445 105.898 157.867 106.414 157.867ZM109.648 168H110.992V163.016C110.992 161.539 111.859 160.641 113.203 160.641C114.547 160.641 115.188 161.359 115.188 162.875V168H116.531V162.547C116.531 160.547 115.477 159.43 113.586 159.43C112.297 159.43 111.477 159.977 111.055 160.906H110.93V159.578H109.648V168ZM122.398 166.688C120.836 166.688 119.961 165.5 119.961 163.664C119.961 161.828 120.836 160.641 122.398 160.641C123.953 160.641 124.898 161.828 124.898 163.664C124.898 165.5 123.961 166.688 122.398 166.688ZM122.461 171.234C124.758 171.234 126.211 170.031 126.211 168.148V159.578H124.93V160.914H124.805C124.32 160.008 123.281 159.43 122.102 159.43C119.938 159.43 118.57 161.141 118.57 163.664C118.57 166.188 119.922 167.875 122.102 167.875C123.258 167.875 124.211 167.352 124.742 166.422H124.867V168.078C124.867 169.32 123.969 170.062 122.461 170.062C121.25 170.062 120.5 169.617 120.352 168.93H118.93C119.133 170.32 120.43 171.234 122.461 171.234ZM133.82 157.398V159.578H132.461V160.703H133.82V165.812C133.82 167.422 134.516 168.062 136.25 168.062C136.516 168.062 136.773 168.031 137.039 167.984V166.852C136.789 166.875 136.656 166.883 136.414 166.883C135.539 166.883 135.164 166.461 135.164 165.469V160.703H137.039V159.578H135.164V157.398H133.82ZM139.148 168H140.492V163.016C140.492 161.594 141.32 160.641 142.828 160.641C144.102 160.641 144.773 161.383 144.773 162.875V168H146.117V162.547C146.117 160.57 144.992 159.43 143.211 159.43C141.922 159.43 141.039 159.977 140.617 160.906H140.492V156.234H139.148V168ZM151.93 160.617C153.266 160.617 154.156 161.602 154.188 163.094H149.547C149.648 161.602 150.586 160.617 151.93 160.617ZM154.148 165.82C153.797 166.562 153.062 166.961 151.977 166.961C150.547 166.961 149.617 165.906 149.547 164.242V164.18H155.602V163.664C155.602 161.047 154.219 159.43 151.945 159.43C149.633 159.43 148.148 161.148 148.148 163.797C148.148 166.461 149.609 168.148 151.945 168.148C153.789 168.148 155.086 167.266 155.492 165.82H154.148ZM157.742 168H159.086V159.578H157.742V168ZM158.414 157.867C158.93 157.867 159.352 157.445 159.352 156.93C159.352 156.414 158.93 155.992 158.414 155.992C157.898 155.992 157.477 156.414 157.477 156.93C157.477 157.445 157.898 157.867 158.414 157.867ZM161.648 168H162.992V162.781C162.992 161.594 163.922 160.734 165.203 160.734C165.469 160.734 165.953 160.781 166.062 160.812V159.469C165.891 159.445 165.609 159.43 165.391 159.43C164.273 159.43 163.305 160.008 163.055 160.828H162.93V159.578H161.648V168ZM57.5234 196.148C59.9219 196.148 61.4062 194.492 61.4062 191.789C61.4062 189.078 59.9219 187.43 57.5234 187.43C55.125 187.43 53.6406 189.078 53.6406 191.789C53.6406 194.492 55.125 196.148 57.5234 196.148ZM57.5234 194.938C55.9297 194.938 55.0312 193.781 55.0312 191.789C55.0312 189.789 55.9297 188.641 57.5234 188.641C59.1172 188.641 60.0156 189.789 60.0156 191.789C60.0156 193.781 59.1172 194.938 57.5234 194.938ZM73.7969 187.578H72.4453L70.7891 194.312H70.6641L68.7812 187.578H67.4922L65.6094 194.312H65.4844L63.8281 187.578H62.4688L64.8281 196H66.1875L68.0625 189.484H68.1875L70.0703 196H71.4375L73.7969 187.578ZM75.5938 196H76.9375V191.016C76.9375 189.539 77.8047 188.641 79.1484 188.641C80.4922 188.641 81.1328 189.359 81.1328 190.875V196H82.4766V190.547C82.4766 188.547 81.4219 187.43 79.5312 187.43C78.2422 187.43 77.4219 187.977 77 188.906H76.875V187.578H75.5938V196ZM88.2969 188.617C89.6328 188.617 90.5234 189.602 90.5547 191.094H85.9141C86.0156 189.602 86.9531 188.617 88.2969 188.617ZM90.5156 193.82C90.1641 194.562 89.4297 194.961 88.3438 194.961C86.9141 194.961 85.9844 193.906 85.9141 192.242V192.18H91.9688V191.664C91.9688 189.047 90.5859 187.43 88.3125 187.43C86 187.43 84.5156 189.148 84.5156 191.797C84.5156 194.461 85.9766 196.148 88.3125 196.148C90.1562 196.148 91.4531 195.266 91.8594 193.82H90.5156ZM94.0781 196H95.4219V190.781C95.4219 189.594 96.3516 188.734 97.6328 188.734C97.8984 188.734 98.3828 188.781 98.4922 188.812V187.469C98.3203 187.445 98.0391 187.43 97.8203 187.43C96.7031 187.43 95.7344 188.008 95.4844 188.828H95.3594V187.578H94.0781V196ZM99.8203 189.883C99.8203 191.102 100.539 191.781 102.117 192.164L103.562 192.516C104.461 192.734 104.898 193.125 104.898 193.703C104.898 194.477 104.086 195.016 102.953 195.016C101.875 195.016 101.203 194.562 100.977 193.852H99.5938C99.7422 195.25 101.031 196.148 102.906 196.148C104.82 196.148 106.281 195.109 106.281 193.602C106.281 192.391 105.516 191.703 103.93 191.32L102.633 191.008C101.641 190.766 101.172 190.406 101.172 189.828C101.172 189.078 101.953 188.57 102.953 188.57C103.969 188.57 104.625 189.016 104.805 189.688H106.133C105.953 188.305 104.727 187.43 102.961 187.43C101.172 187.43 99.8203 188.484 99.8203 189.883ZM108.469 196H109.812V191.016C109.812 189.594 110.641 188.641 112.148 188.641C113.422 188.641 114.094 189.383 114.094 190.875V196H115.438V190.547C115.438 188.57 114.312 187.43 112.531 187.43C111.242 187.43 110.359 187.977 109.938 188.906H109.812V184.234H108.469V196ZM117.922 196H119.266V187.578H117.922V196ZM118.594 185.867C119.109 185.867 119.531 185.445 119.531 184.93C119.531 184.414 119.109 183.992 118.594 183.992C118.078 183.992 117.656 184.414 117.656 184.93C117.656 185.445 118.078 185.867 118.594 185.867ZM125.93 187.43C124.781 187.43 123.773 188.016 123.234 188.984H123.109V187.578H121.828V198.812H123.172V194.734H123.297C123.758 195.625 124.727 196.148 125.93 196.148C128.07 196.148 129.469 194.422 129.469 191.789C129.469 189.141 128.078 187.43 125.93 187.43ZM125.609 194.938C124.094 194.938 123.133 193.719 123.133 191.789C123.133 189.852 124.094 188.641 125.617 188.641C127.156 188.641 128.078 189.82 128.078 191.789C128.078 193.758 127.156 194.938 125.609 194.938ZM135.898 189.883C135.898 191.102 136.617 191.781 138.195 192.164L139.641 192.516C140.539 192.734 140.977 193.125 140.977 193.703C140.977 194.477 140.164 195.016 139.031 195.016C137.953 195.016 137.281 194.562 137.055 193.852H135.672C135.82 195.25 137.109 196.148 138.984 196.148C140.898 196.148 142.359 195.109 142.359 193.602C142.359 192.391 141.594 191.703 140.008 191.32L138.711 191.008C137.719 190.766 137.25 190.406 137.25 189.828C137.25 189.078 138.031 188.57 139.031 188.57C140.047 188.57 140.703 189.016 140.883 189.688H142.211C142.031 188.305 140.805 187.43 139.039 187.43C137.25 187.43 135.898 188.484 135.898 189.883ZM144.953 185.398V187.578H143.594V188.703H144.953V193.812C144.953 195.422 145.648 196.062 147.383 196.062C147.648 196.062 147.906 196.031 148.172 195.984V194.852C147.922 194.875 147.789 194.883 147.547 194.883C146.672 194.883 146.297 194.461 146.297 193.469V188.703H148.172V187.578H146.297V185.398H144.953ZM152.797 194.969C151.82 194.969 151.094 194.469 151.094 193.609C151.094 192.766 151.656 192.32 152.938 192.234L155.203 192.086V192.859C155.203 194.062 154.18 194.969 152.797 194.969ZM152.547 196.148C153.672 196.148 154.594 195.656 155.141 194.758H155.266V196H156.547V190.234C156.547 188.484 155.398 187.43 153.344 187.43C151.547 187.43 150.219 188.32 150.039 189.672H151.398C151.586 189.008 152.289 188.625 153.297 188.625C154.555 188.625 155.203 189.195 155.203 190.234V191L152.773 191.148C150.812 191.266 149.703 192.133 149.703 193.641C149.703 195.18 150.914 196.148 152.547 196.148ZM160.578 191.258H160.453V184.234H159.109V196H160.453V192.805L161.258 192.055L164.414 196H166.125L162.258 191.188L165.883 187.578H164.234L160.578 191.258ZM170.688 188.617C172.023 188.617 172.914 189.602 172.945 191.094H168.305C168.406 189.602 169.344 188.617 170.688 188.617ZM172.906 193.82C172.555 194.562 171.82 194.961 170.734 194.961C169.305 194.961 168.375 193.906 168.305 192.242V192.18H174.359V191.664C174.359 189.047 172.977 187.43 170.703 187.43C168.391 187.43 166.906 189.148 166.906 191.797C166.906 194.461 168.367 196.148 170.703 196.148C172.547 196.148 173.844 195.266 174.25 193.82H172.906Z" fill="#202020"/>
<defs>
<linearGradient id="paint0_linear" x1="99.0189" y1="72.4954" x2="135.635" y2="35.8797" gradientUnits="userSpaceOnUse">
<stop stop-color="#FFD9D6" stop-opacity="0.2"/>
<stop offset="1" stop-color="#F44336"/>
</linearGradient>
<clipPath id="clip0">
<rect x="84" y="25" width="60" height="50" fill="white"/>
</clipPath>
</defs>
</svg>
