<svg width="228" height="224" viewBox="0 0 228 224" fill="none" xmlns="http://www.w3.org/2000/svg">
<rect width="228" height="224" rx="4" fill="#F5F7FA"/>
<path d="M75.1484 110V98.7266H73.1328V110H75.1484ZM78.7266 110H80.6641V105.023C80.6641 103.766 81.3906 102.969 82.5469 102.969C83.7266 102.969 84.2734 103.625 84.2734 104.93V110H86.2109V104.469C86.2109 102.43 85.1719 101.281 83.2656 101.281C81.9922 101.281 81.1328 101.867 80.7266 102.82H80.5938V101.453H78.7266V110ZM96.6953 101.453H94.6484L92.6875 108.062H92.5547L90.5781 101.453H88.5L91.5391 110H93.6719L96.6953 101.453ZM102.578 102.82C103.742 102.82 104.508 103.633 104.547 104.898H100.523C100.609 103.648 101.422 102.82 102.578 102.82ZM104.562 107.648C104.281 108.281 103.617 108.633 102.656 108.633C101.383 108.633 100.562 107.742 100.516 106.32V106.219H106.484V105.594C106.484 102.898 105.023 101.281 102.586 101.281C100.109 101.281 98.5703 103.008 98.5703 105.758C98.5703 108.508 100.086 110.172 102.602 110.172C104.617 110.172 106.031 109.203 106.398 107.648H104.562ZM109.234 103.898C109.234 105.188 110.008 105.945 111.648 106.32L113.164 106.672C113.977 106.852 114.344 107.156 114.344 107.641C114.344 108.273 113.664 108.703 112.688 108.703C111.719 108.703 111.117 108.328 110.93 107.695H109.016C109.164 109.25 110.508 110.172 112.641 110.172C114.773 110.172 116.281 109.078 116.281 107.438C116.281 106.18 115.523 105.477 113.891 105.109L112.383 104.766C111.523 104.57 111.117 104.273 111.117 103.789C111.117 103.172 111.781 102.75 112.664 102.75C113.57 102.75 114.141 103.133 114.281 103.734H116.102C115.961 102.18 114.688 101.281 112.656 101.281C110.641 101.281 109.234 102.352 109.234 103.898ZM119.797 99.3594V101.508H118.445V103.055H119.797V107.719C119.797 109.375 120.578 110.039 122.539 110.039C122.914 110.039 123.273 110 123.555 109.945V108.43C123.32 108.453 123.172 108.469 122.898 108.469C122.086 108.469 121.727 108.094 121.727 107.25V103.055H123.555V101.508H121.727V99.3594H119.797ZM130.102 110.172C132.656 110.172 134.211 108.5 134.211 105.727C134.211 102.961 132.648 101.281 130.102 101.281C127.562 101.281 125.992 102.969 125.992 105.727C125.992 108.5 127.539 110.172 130.102 110.172ZM130.102 108.547C128.75 108.547 127.977 107.516 127.977 105.727C127.977 103.945 128.75 102.906 130.102 102.906C131.445 102.906 132.219 103.945 132.219 105.727C132.219 107.516 131.453 108.547 130.102 108.547ZM137.164 110H139.102V105.062C139.102 103.867 139.977 103.086 141.234 103.086C141.562 103.086 142.078 103.141 142.227 103.195V101.398C142.047 101.344 141.703 101.312 141.422 101.312C140.32 101.312 139.398 101.938 139.164 102.781H139.031V101.453H137.164V110ZM144.438 103.898C144.438 105.188 145.211 105.945 146.852 106.32L148.367 106.672C149.18 106.852 149.547 107.156 149.547 107.641C149.547 108.273 148.867 108.703 147.891 108.703C146.922 108.703 146.32 108.328 146.133 107.695H144.219C144.367 109.25 145.711 110.172 147.844 110.172C149.977 110.172 151.484 109.078 151.484 107.438C151.484 106.18 150.727 105.477 149.094 105.109L147.586 104.766C146.727 104.57 146.32 104.273 146.32 103.789C146.32 103.172 146.984 102.75 147.867 102.75C148.773 102.75 149.344 103.133 149.484 103.734H151.305C151.164 102.18 149.891 101.281 147.859 101.281C145.844 101.281 144.438 102.352 144.438 103.898Z" fill="#202020"/>
<g clip-path="url(#clip0)">
<path fill-rule="evenodd" clip-rule="evenodd" d="M92 25H142V32.9H92V25ZM99.7 61.5V74.5H98.7V33.9H92V75H142V61.5H99.7ZM99.7 33.9H142V47.2H99.7V33.9ZM99.7 48.2H142V60.5H99.7V48.2Z" fill="url(#paint0_linear)" fill-opacity="0.9"/>
<path d="M89.1998 64.0001C86.7998 64.0001 84.7998 62.5001 84.7998 60.6001C84.7998 60.3001 84.9998 60.0001 85.2998 60.0001C85.5998 60.0001 85.7998 60.2001 85.7998 60.5001C85.7998 61.8001 87.2998 62.9001 89.1998 62.9001C91.0998 62.9001 92.5998 61.8001 92.5998 60.5001C92.5998 59.9001 92.5998 58.3001 89.0998 57.8001C87.0998 57.5001 84.7998 56.9001 84.7998 54.1001C84.7998 52.2001 86.7998 50.7001 89.1998 50.7001C91.5998 50.7001 93.5998 52.2001 93.5998 54.1001C93.5998 54.4001 93.3998 54.6001 93.0998 54.6001C92.7998 54.6001 92.5998 54.4001 92.5998 54.1001C92.5998 52.8001 91.0998 51.7001 89.1998 51.7001C87.2998 51.7001 85.7998 52.8001 85.7998 54.1001C85.7998 55.7001 86.7998 56.5001 89.2998 56.8001C92.8998 57.3001 93.5998 59.1001 93.5998 60.5001C93.5998 62.4001 91.5998 64.0001 89.1998 64.0001Z" fill="#7C57C2"/>
<path d="M89.2002 51.6C88.9002 51.6 88.7002 51.4 88.7002 51.1V48.4C88.7002 48.1 88.9002 47.9 89.2002 47.9C89.5002 47.9 89.7002 48.1 89.7002 48.4V51.1C89.7002 51.4 89.4002 51.6 89.2002 51.6Z" fill="#7C57C2"/>
<path d="M89.2002 66.8C88.9002 66.8 88.7002 66.6 88.7002 66.3V63.5C88.7002 63.2 88.9002 63 89.2002 63C89.5002 63 89.7002 63.2 89.7002 63.5V66.3C89.7002 66.6 89.4002 66.8 89.2002 66.8Z" fill="#7C57C2"/>
<path d="M109.7 55.4C109.5 55.4 109.4 55.3 109.3 55.2L105.6 49.8L101.9 55.2C101.7 55.4 101.4 55.5 101.2 55.3C101 55.1 100.9 54.8 101.1 54.6L105.2 48.6C105.4 48.3 105.8 48.3 106 48.6L110.1 54.6C110.3 54.8 110.2 55.1 110 55.3C109.9 55.4 109.8 55.4 109.7 55.4Z" fill="#7C57C2"/>
<path d="M84 74.4C83.7 74.4 83.5 74.2 83.5 73.9C83.5 73.6 83.7 73.4 84 73.4C95.6 73.4 105.1 63.9 105.1 52.3V48.9C105.1 48.6 105.3 48.4 105.6 48.4C105.9 48.4 106.1 48.6 106.1 48.9V52.3C106.1 64.5 96.1 74.4 84 74.4Z" fill="#7C57C2"/>
</g>
<path d="M52.4453 135.641V134.266H47.875V135.5H51.0469V135.773C51.0469 137.68 49.6797 138.969 47.6641 138.969C45.3984 138.969 43.9922 137.203 43.9922 134.359C43.9922 131.555 45.4219 129.758 47.6562 129.758C49.3281 129.758 50.4609 130.562 50.9453 132.086H52.375C51.9688 129.852 50.1562 128.461 47.6562 128.461C44.5703 128.461 42.5469 130.797 42.5469 134.359C42.5469 137.969 44.5391 140.266 47.6562 140.266C50.5391 140.266 52.4453 138.422 52.4453 135.641ZM58.125 132.617C59.4609 132.617 60.3516 133.602 60.3828 135.094H55.7422C55.8438 133.602 56.7812 132.617 58.125 132.617ZM60.3438 137.82C59.9922 138.562 59.2578 138.961 58.1719 138.961C56.7422 138.961 55.8125 137.906 55.7422 136.242V136.18H61.7969V135.664C61.7969 133.047 60.4141 131.43 58.1406 131.43C55.8281 131.43 54.3438 133.148 54.3438 135.797C54.3438 138.461 55.8047 140.148 58.1406 140.148C59.9844 140.148 61.2812 139.266 61.6875 137.82H60.3438ZM64.4688 129.398V131.578H63.1094V132.703H64.4688V137.812C64.4688 139.422 65.1641 140.062 66.8984 140.062C67.1641 140.062 67.4219 140.031 67.6875 139.984V138.852C67.4375 138.875 67.3047 138.883 67.0625 138.883C66.1875 138.883 65.8125 138.461 65.8125 137.469V132.703H67.6875V131.578H65.8125V129.398H64.4688ZM78.4219 140.148C80.5547 140.148 81.9531 138.422 81.9531 135.789C81.9531 133.141 80.5625 131.43 78.4219 131.43C77.2656 131.43 76.2422 132 75.7812 132.906H75.6562V128.234H74.3125V140H75.5938V138.656H75.7188C76.25 139.594 77.25 140.148 78.4219 140.148ZM78.1094 132.641C79.6484 132.641 80.5625 133.82 80.5625 135.789C80.5625 137.758 79.6484 138.938 78.1094 138.938C76.5781 138.938 75.625 137.734 75.625 135.789C75.625 133.844 76.5781 132.641 78.1094 132.641ZM87.4219 132.617C88.7578 132.617 89.6484 133.602 89.6797 135.094H85.0391C85.1406 133.602 86.0781 132.617 87.4219 132.617ZM89.6406 137.82C89.2891 138.562 88.5547 138.961 87.4688 138.961C86.0391 138.961 85.1094 137.906 85.0391 136.242V136.18H91.0938V135.664C91.0938 133.047 89.7109 131.43 87.4375 131.43C85.125 131.43 83.6406 133.148 83.6406 135.797C83.6406 138.461 85.1016 140.148 87.4375 140.148C89.2812 140.148 90.5781 139.266 90.9844 137.82H89.6406ZM93.7656 129.398V131.578H92.4062V132.703H93.7656V137.812C93.7656 139.422 94.4609 140.062 96.1953 140.062C96.4609 140.062 96.7188 140.031 96.9844 139.984V138.852C96.7344 138.875 96.6016 138.883 96.3594 138.883C95.4844 138.883 95.1094 138.461 95.1094 137.469V132.703H96.9844V131.578H95.1094V129.398H93.7656ZM99.5781 129.398V131.578H98.2188V132.703H99.5781V137.812C99.5781 139.422 100.273 140.062 102.008 140.062C102.273 140.062 102.531 140.031 102.797 139.984V138.852C102.547 138.875 102.414 138.883 102.172 138.883C101.297 138.883 100.922 138.461 100.922 137.469V132.703H102.797V131.578H100.922V129.398H99.5781ZM108.062 132.617C109.398 132.617 110.289 133.602 110.32 135.094H105.68C105.781 133.602 106.719 132.617 108.062 132.617ZM110.281 137.82C109.93 138.562 109.195 138.961 108.109 138.961C106.68 138.961 105.75 137.906 105.68 136.242V136.18H111.734V135.664C111.734 133.047 110.352 131.43 108.078 131.43C105.766 131.43 104.281 133.148 104.281 135.797C104.281 138.461 105.742 140.148 108.078 140.148C109.922 140.148 111.219 139.266 111.625 137.82H110.281ZM113.844 140H115.188V134.781C115.188 133.594 116.117 132.734 117.398 132.734C117.664 132.734 118.148 132.781 118.258 132.812V131.469C118.086 131.445 117.805 131.43 117.586 131.43C116.469 131.43 115.5 132.008 115.25 132.828H115.125V131.578H113.844V140ZM124.531 140H125.875V128.234H124.531V140ZM128.516 140H129.859V131.578H128.516V140ZM129.188 129.867C129.703 129.867 130.125 129.445 130.125 128.93C130.125 128.414 129.703 127.992 129.188 127.992C128.672 127.992 128.25 128.414 128.25 128.93C128.25 129.445 128.672 129.867 129.188 129.867ZM135.523 131.43C133.391 131.43 132 133.148 132 135.789C132 138.445 133.375 140.148 135.523 140.148C136.711 140.148 137.617 139.656 138.156 138.734H138.281V142.812H139.641V131.578H138.344V132.984H138.219C137.719 132.039 136.672 131.43 135.523 131.43ZM135.828 138.938C134.297 138.938 133.391 137.766 133.391 135.789C133.391 133.82 134.305 132.641 135.836 132.641C137.359 132.641 138.32 133.859 138.32 135.789C138.32 137.727 137.367 138.938 135.828 138.938ZM148.984 131.578H147.641V136.562C147.641 138.039 146.828 138.922 145.344 138.922C144 138.922 143.438 138.219 143.438 136.703V131.578H142.094V137.031C142.094 139.023 143.078 140.148 144.969 140.148C146.258 140.148 147.156 139.617 147.578 138.68H147.703V140H148.984V131.578ZM151.547 140H152.891V131.578H151.547V140ZM152.219 129.867C152.734 129.867 153.156 129.445 153.156 128.93C153.156 128.414 152.734 127.992 152.219 127.992C151.703 127.992 151.281 128.414 151.281 128.93C151.281 129.445 151.703 129.867 152.219 129.867ZM158.57 140.148C159.734 140.148 160.734 139.594 161.266 138.656H161.391V140H162.672V128.234H161.328V132.906H161.211C160.734 131.984 159.742 131.43 158.57 131.43C156.43 131.43 155.031 133.148 155.031 135.789C155.031 138.438 156.414 140.148 158.57 140.148ZM158.883 132.641C160.406 132.641 161.359 133.859 161.359 135.789C161.359 137.734 160.414 138.938 158.883 138.938C157.344 138.938 156.422 137.758 156.422 135.789C156.422 133.828 157.352 132.641 158.883 132.641ZM165.312 140H166.656V131.578H165.312V140ZM165.984 129.867C166.5 129.867 166.922 129.445 166.922 128.93C166.922 128.414 166.5 127.992 165.984 127.992C165.469 127.992 165.047 128.414 165.047 128.93C165.047 129.445 165.469 129.867 165.984 129.867ZM169.781 129.398V131.578H168.422V132.703H169.781V137.812C169.781 139.422 170.477 140.062 172.211 140.062C172.477 140.062 172.734 140.031 173 139.984V138.852C172.75 138.875 172.617 138.883 172.375 138.883C171.5 138.883 171.125 138.461 171.125 137.469V132.703H173V131.578H171.125V129.398H169.781ZM175.75 143.047C177.242 143.047 177.914 142.469 178.633 140.516L181.922 131.578H180.492L178.188 138.508H178.062L175.75 131.578H174.297L177.414 140.008L177.258 140.508C176.906 141.523 176.484 141.891 175.711 141.891C175.523 141.891 175.312 141.883 175.148 141.852V143C175.336 143.031 175.57 143.047 175.75 143.047Z" fill="#202020"/>
<defs>
<linearGradient id="paint0_linear" x1="81.6177" y1="63.4598" x2="132.118" y2="14.2098" gradientUnits="userSpaceOnUse">
<stop stop-color="#E3D9F5" stop-opacity="0.1"/>
<stop offset="1" stop-color="#7C57C2" stop-opacity="0.7"/>
</linearGradient>
<clipPath id="clip0">
<rect x="82" y="25" width="60" height="50" fill="white"/>
</clipPath>
</defs>
</svg>
