<svg width="228" height="224" viewBox="0 0 228 224" fill="none" xmlns="http://www.w3.org/2000/svg">
<rect width="228" height="224" rx="4" fill="#F5F7FA"/>
<g clip-path="url(#clip0)">
<path d="M144.1 75H90.1001V62.4H100.6V49.8H112.3V37.9H124.4V25H144.1V75Z" fill="url(#paint0_linear)" fill-opacity="0.4"/>
<path d="M112 75H84.7002C84.4002 75 84.2002 74.8 84.2002 74.5C84.2002 74.2 84.4002 74 84.7002 74H112C112.3 74 112.5 74.2 112.5 74.5C112.5 74.8 112.2 75 112 75Z" fill="#05ACFF"/>
<path d="M112 62.5H90.1001C89.8001 62.5 89.6001 62.3 89.6001 62C89.6001 61.7 89.8001 61.5 90.1001 61.5H112C112.3 61.5 112.5 61.7 112.5 62C112.5 62.3 112.2 62.5 112 62.5Z" fill="#05ACFF"/>
<path d="M112 50.5H101C100.7 50.5 100.5 50.3 100.5 50C100.5 49.7 100.7 49.5 101 49.5H112C112.3 49.5 112.5 49.7 112.5 50C112.5 50.3 112.2 50.5 112 50.5Z" fill="#05ACFF"/>
</g>
<path d="M57.6484 106.938C57.75 108.984 59.4609 110.281 62.0469 110.281C64.7812 110.281 66.4766 108.914 66.4766 106.719C66.4766 105 65.5156 104.047 63.2266 103.531L61.9297 103.234C60.5312 102.914 59.9609 102.469 59.9609 101.711C59.9609 100.75 60.8203 100.125 62.1172 100.125C63.3516 100.125 64.2266 100.75 64.3672 101.742H66.2969C66.2031 99.8047 64.4922 98.4453 62.125 98.4453C59.6016 98.4453 57.9297 99.8047 57.9297 101.852C57.9297 103.531 58.8906 104.547 60.9375 105.008L62.3984 105.344C63.8438 105.68 64.4609 106.156 64.4609 106.969C64.4609 107.914 63.5 108.594 62.1719 108.594C60.7422 108.594 59.7422 107.945 59.6172 106.938H57.6484ZM70.1562 99.3594V101.508H68.8047V103.055H70.1562V107.719C70.1562 109.375 70.9375 110.039 72.8984 110.039C73.2734 110.039 73.6328 110 73.9141 109.945V108.43C73.6797 108.453 73.5312 108.469 73.2578 108.469C72.4453 108.469 72.0859 108.094 72.0859 107.25V103.055H73.9141V101.508H72.0859V99.3594H70.1562ZM79.7734 108.617C78.9141 108.617 78.2969 108.188 78.2969 107.469C78.2969 106.773 78.8047 106.383 79.8906 106.312L81.8203 106.188V106.867C81.8203 107.859 80.9453 108.617 79.7734 108.617ZM79.2031 110.141C80.3203 110.141 81.2578 109.656 81.7344 108.828H81.8672V110H83.7344V104.164C83.7344 102.352 82.5 101.281 80.3047 101.281C78.2734 101.281 76.8594 102.242 76.7031 103.75H78.5312C78.7109 103.172 79.3203 102.859 80.2109 102.859C81.2578 102.859 81.8203 103.328 81.8203 104.164V104.883L79.6172 105.016C77.5391 105.141 76.375 106.031 76.375 107.578C76.375 109.141 77.5547 110.141 79.2031 110.141ZM89.2188 104.938H89.0859V98.1484H87.1484V110H89.0859V107.023L89.7734 106.336L92.5156 110H94.8594L91.2188 105.117L94.625 101.453H92.375L89.2188 104.938ZM100.469 102.82C101.633 102.82 102.398 103.633 102.438 104.898H98.4141C98.5 103.648 99.3125 102.82 100.469 102.82ZM102.453 107.648C102.172 108.281 101.508 108.633 100.547 108.633C99.2734 108.633 98.4531 107.742 98.4062 106.32V106.219H104.375V105.594C104.375 102.898 102.914 101.281 100.477 101.281C98 101.281 96.4609 103.008 96.4609 105.758C96.4609 108.508 97.9766 110.172 100.492 110.172C102.508 110.172 103.922 109.203 104.289 107.648H102.453ZM107.398 110H109.336V105.039C109.336 103.812 110.047 102.984 111.32 102.984C112.445 102.984 113.039 103.648 113.039 104.945V110H114.977V104.484C114.977 102.453 113.867 101.297 112.039 101.297C110.766 101.297 109.852 101.875 109.445 102.836H109.305V98.1484H107.398V110ZM121.961 110.172C124.516 110.172 126.07 108.5 126.07 105.727C126.07 102.961 124.508 101.281 121.961 101.281C119.422 101.281 117.852 102.969 117.852 105.727C117.852 108.5 119.398 110.172 121.961 110.172ZM121.961 108.547C120.609 108.547 119.836 107.516 119.836 105.727C119.836 103.945 120.609 102.906 121.961 102.906C123.305 102.906 124.078 103.945 124.078 105.727C124.078 107.516 123.312 108.547 121.961 108.547ZM129.102 110H131.039V98.1484H129.102V110ZM137.586 110.141C138.773 110.141 139.758 109.586 140.242 108.648H140.375V110H142.25V98.1484H140.312V102.812H140.18C139.727 101.875 138.758 101.312 137.586 101.312C135.43 101.312 134.07 103.016 134.07 105.719C134.07 108.438 135.422 110.141 137.586 110.141ZM138.188 102.961C139.516 102.961 140.336 104.023 140.336 105.727C140.336 107.445 139.523 108.492 138.188 108.492C136.859 108.492 136.055 107.453 136.055 105.727C136.055 104.008 136.867 102.961 138.188 102.961ZM149.281 102.82C150.445 102.82 151.211 103.633 151.25 104.898H147.227C147.312 103.648 148.125 102.82 149.281 102.82ZM151.266 107.648C150.984 108.281 150.32 108.633 149.359 108.633C148.086 108.633 147.266 107.742 147.219 106.32V106.219H153.188V105.594C153.188 102.898 151.727 101.281 149.289 101.281C146.812 101.281 145.273 103.008 145.273 105.758C145.273 108.508 146.789 110.172 149.305 110.172C151.32 110.172 152.734 109.203 153.102 107.648H151.266ZM156.133 110H158.07V105.062C158.07 103.867 158.945 103.086 160.203 103.086C160.531 103.086 161.047 103.141 161.195 103.195V101.398C161.016 101.344 160.672 101.312 160.391 101.312C159.289 101.312 158.367 101.938 158.133 102.781H158V101.453H156.133V110ZM163.406 103.898C163.406 105.188 164.18 105.945 165.82 106.32L167.336 106.672C168.148 106.852 168.516 107.156 168.516 107.641C168.516 108.273 167.836 108.703 166.859 108.703C165.891 108.703 165.289 108.328 165.102 107.695H163.188C163.336 109.25 164.68 110.172 166.812 110.172C168.945 110.172 170.453 109.078 170.453 107.438C170.453 106.18 169.695 105.477 168.062 105.109L166.555 104.766C165.695 104.57 165.289 104.273 165.289 103.789C165.289 103.172 165.953 102.75 166.836 102.75C167.742 102.75 168.312 103.133 168.453 103.734H170.273C170.133 102.18 168.859 101.281 166.828 101.281C164.812 101.281 163.406 102.352 163.406 103.898Z" fill="#202020"/>
<path d="M35.1562 135.641V134.266H30.5859V135.5H33.7578V135.773C33.7578 137.68 32.3906 138.969 30.375 138.969C28.1094 138.969 26.7031 137.203 26.7031 134.359C26.7031 131.555 28.1328 129.758 30.3672 129.758C32.0391 129.758 33.1719 130.562 33.6562 132.086H35.0859C34.6797 129.852 32.8672 128.461 30.3672 128.461C27.2812 128.461 25.2578 130.797 25.2578 134.359C25.2578 137.969 27.25 140.266 30.3672 140.266C33.25 140.266 35.1562 138.422 35.1562 135.641ZM40.8359 132.617C42.1719 132.617 43.0625 133.602 43.0938 135.094H38.4531C38.5547 133.602 39.4922 132.617 40.8359 132.617ZM43.0547 137.82C42.7031 138.562 41.9688 138.961 40.8828 138.961C39.4531 138.961 38.5234 137.906 38.4531 136.242V136.18H44.5078V135.664C44.5078 133.047 43.125 131.43 40.8516 131.43C38.5391 131.43 37.0547 133.148 37.0547 135.797C37.0547 138.461 38.5156 140.148 40.8516 140.148C42.6953 140.148 43.9922 139.266 44.3984 137.82H43.0547ZM47.1797 129.398V131.578H45.8203V132.703H47.1797V137.812C47.1797 139.422 47.875 140.062 49.6094 140.062C49.875 140.062 50.1328 140.031 50.3984 139.984V138.852C50.1484 138.875 50.0156 138.883 49.7734 138.883C48.8984 138.883 48.5234 138.461 48.5234 137.469V132.703H50.3984V131.578H48.5234V129.398H47.1797ZM59.5391 138.969C58.5625 138.969 57.8359 138.469 57.8359 137.609C57.8359 136.766 58.3984 136.32 59.6797 136.234L61.9453 136.086V136.859C61.9453 138.062 60.9219 138.969 59.5391 138.969ZM59.2891 140.148C60.4141 140.148 61.3359 139.656 61.8828 138.758H62.0078V140H63.2891V134.234C63.2891 132.484 62.1406 131.43 60.0859 131.43C58.2891 131.43 56.9609 132.32 56.7812 133.672H58.1406C58.3281 133.008 59.0312 132.625 60.0391 132.625C61.2969 132.625 61.9453 133.195 61.9453 134.234V135L59.5156 135.148C57.5547 135.266 56.4453 136.133 56.4453 137.641C56.4453 139.18 57.6562 140.148 59.2891 140.148ZM80.8828 131.578H79.5312L77.875 138.312H77.75L75.8672 131.578H74.5781L72.6953 138.312H72.5703L70.9141 131.578H69.5547L71.9141 140H73.2734L75.1484 133.484H75.2734L77.1562 140H78.5234L80.8828 131.578ZM85.0391 138.969C84.0625 138.969 83.3359 138.469 83.3359 137.609C83.3359 136.766 83.8984 136.32 85.1797 136.234L87.4453 136.086V136.859C87.4453 138.062 86.4219 138.969 85.0391 138.969ZM84.7891 140.148C85.9141 140.148 86.8359 139.656 87.3828 138.758H87.5078V140H88.7891V134.234C88.7891 132.484 87.6406 131.43 85.5859 131.43C83.7891 131.43 82.4609 132.32 82.2812 133.672H83.6406C83.8281 133.008 84.5312 132.625 85.5391 132.625C86.7969 132.625 87.4453 133.195 87.4453 134.234V135L85.0156 135.148C83.0547 135.266 81.9453 136.133 81.9453 137.641C81.9453 139.18 83.1562 140.148 84.7891 140.148ZM91.6797 143.047C93.1719 143.047 93.8438 142.469 94.5625 140.516L97.8516 131.578H96.4219L94.1172 138.508H93.9922L91.6797 131.578H90.2266L93.3438 140.008L93.1875 140.508C92.8359 141.523 92.4141 141.891 91.6406 141.891C91.4531 141.891 91.2422 141.883 91.0781 141.852V143C91.2656 143.031 91.5 143.047 91.6797 143.047ZM104.727 129.398V131.578H103.367V132.703H104.727V137.812C104.727 139.422 105.422 140.062 107.156 140.062C107.422 140.062 107.68 140.031 107.945 139.984V138.852C107.695 138.875 107.562 138.883 107.32 138.883C106.445 138.883 106.07 138.461 106.07 137.469V132.703H107.945V131.578H106.07V129.398H104.727ZM113.312 140.148C115.711 140.148 117.195 138.492 117.195 135.789C117.195 133.078 115.711 131.43 113.312 131.43C110.914 131.43 109.43 133.078 109.43 135.789C109.43 138.492 110.914 140.148 113.312 140.148ZM113.312 138.938C111.719 138.938 110.82 137.781 110.82 135.789C110.82 133.789 111.719 132.641 113.312 132.641C114.906 132.641 115.805 133.789 115.805 135.789C115.805 137.781 114.906 138.938 113.312 138.938ZM127.922 131.43C126.773 131.43 125.766 132.016 125.227 132.984H125.102V131.578H123.82V142.812H125.164V138.734H125.289C125.75 139.625 126.719 140.148 127.922 140.148C130.062 140.148 131.461 138.422 131.461 135.789C131.461 133.141 130.07 131.43 127.922 131.43ZM127.602 138.938C126.086 138.938 125.125 137.719 125.125 135.789C125.125 133.852 126.086 132.641 127.609 132.641C129.148 132.641 130.07 133.82 130.07 135.789C130.07 137.758 129.148 138.938 127.602 138.938ZM136.164 138.969C135.188 138.969 134.461 138.469 134.461 137.609C134.461 136.766 135.023 136.32 136.305 136.234L138.57 136.086V136.859C138.57 138.062 137.547 138.969 136.164 138.969ZM135.914 140.148C137.039 140.148 137.961 139.656 138.508 138.758H138.633V140H139.914V134.234C139.914 132.484 138.766 131.43 136.711 131.43C134.914 131.43 133.586 132.32 133.406 133.672H134.766C134.953 133.008 135.656 132.625 136.664 132.625C137.922 132.625 138.57 133.195 138.57 134.234V135L136.141 135.148C134.18 135.266 133.07 136.133 133.07 137.641C133.07 139.18 134.281 140.148 135.914 140.148ZM142.398 140H143.742V134.781C143.742 133.594 144.672 132.734 145.953 132.734C146.219 132.734 146.703 132.781 146.812 132.812V131.469C146.641 131.445 146.359 131.43 146.141 131.43C145.023 131.43 144.055 132.008 143.805 132.828H143.68V131.578H142.398V140ZM149.523 129.398V131.578H148.164V132.703H149.523V137.812C149.523 139.422 150.219 140.062 151.953 140.062C152.219 140.062 152.477 140.031 152.742 139.984V138.852C152.492 138.875 152.359 138.883 152.117 138.883C151.242 138.883 150.867 138.461 150.867 137.469V132.703H152.742V131.578H150.867V129.398H149.523ZM154.805 140H156.148V131.578H154.805V140ZM155.477 129.867C155.992 129.867 156.414 129.445 156.414 128.93C156.414 128.414 155.992 127.992 155.477 127.992C154.961 127.992 154.539 128.414 154.539 128.93C154.539 129.445 154.961 129.867 155.477 129.867ZM165.68 134.156C165.445 132.656 164.195 131.43 162.148 131.43C159.789 131.43 158.289 133.133 158.289 135.758C158.289 138.438 159.797 140.148 162.156 140.148C164.18 140.148 165.438 139.008 165.68 137.461H164.32C164.07 138.414 163.281 138.938 162.148 138.938C160.648 138.938 159.68 137.703 159.68 135.758C159.68 133.852 160.633 132.641 162.148 132.641C163.359 132.641 164.102 133.32 164.32 134.156H165.68ZM167.695 140H169.039V131.578H167.695V140ZM168.367 129.867C168.883 129.867 169.305 129.445 169.305 128.93C169.305 128.414 168.883 127.992 168.367 127.992C167.852 127.992 167.43 128.414 167.43 128.93C167.43 129.445 167.852 129.867 168.367 129.867ZM175.703 131.43C174.555 131.43 173.547 132.016 173.008 132.984H172.883V131.578H171.602V142.812H172.945V138.734H173.07C173.531 139.625 174.5 140.148 175.703 140.148C177.844 140.148 179.242 138.422 179.242 135.789C179.242 133.141 177.852 131.43 175.703 131.43ZM175.383 138.938C173.867 138.938 172.906 137.719 172.906 135.789C172.906 133.852 173.867 132.641 175.391 132.641C176.93 132.641 177.852 133.82 177.852 135.789C177.852 137.758 176.93 138.938 175.383 138.938ZM183.945 138.969C182.969 138.969 182.242 138.469 182.242 137.609C182.242 136.766 182.805 136.32 184.086 136.234L186.352 136.086V136.859C186.352 138.062 185.328 138.969 183.945 138.969ZM183.695 140.148C184.82 140.148 185.742 139.656 186.289 138.758H186.414V140H187.695V134.234C187.695 132.484 186.547 131.43 184.492 131.43C182.695 131.43 181.367 132.32 181.188 133.672H182.547C182.734 133.008 183.438 132.625 184.445 132.625C185.703 132.625 186.352 133.195 186.352 134.234V135L183.922 135.148C181.961 135.266 180.852 136.133 180.852 137.641C180.852 139.18 182.062 140.148 183.695 140.148ZM190.742 129.398V131.578H189.383V132.703H190.742V137.812C190.742 139.422 191.438 140.062 193.172 140.062C193.438 140.062 193.695 140.031 193.961 139.984V138.852C193.711 138.875 193.578 138.883 193.336 138.883C192.461 138.883 192.086 138.461 192.086 137.469V132.703H193.961V131.578H192.086V129.398H190.742ZM199.227 132.617C200.562 132.617 201.453 133.602 201.484 135.094H196.844C196.945 133.602 197.883 132.617 199.227 132.617ZM201.445 137.82C201.094 138.562 200.359 138.961 199.273 138.961C197.844 138.961 196.914 137.906 196.844 136.242V136.18H202.898V135.664C202.898 133.047 201.516 131.43 199.242 131.43C196.93 131.43 195.445 133.148 195.445 135.797C195.445 138.461 196.906 140.148 199.242 140.148C201.086 140.148 202.383 139.266 202.789 137.82H201.445ZM51.5547 168H52.8984V159.578H51.5547V168ZM52.2266 157.867C52.7422 157.867 53.1641 157.445 53.1641 156.93C53.1641 156.414 52.7422 155.992 52.2266 155.992C51.7109 155.992 51.2891 156.414 51.2891 156.93C51.2891 157.445 51.7109 157.867 52.2266 157.867ZM55.4609 168H56.8047V163.016C56.8047 161.539 57.6719 160.641 59.0156 160.641C60.3594 160.641 61 161.359 61 162.875V168H62.3438V162.547C62.3438 160.547 61.2891 159.43 59.3984 159.43C58.1094 159.43 57.2891 159.977 56.8672 160.906H56.7422V159.578H55.4609V168ZM69.8828 157.398V159.578H68.5234V160.703H69.8828V165.812C69.8828 167.422 70.5781 168.062 72.3125 168.062C72.5781 168.062 72.8359 168.031 73.1016 167.984V166.852C72.8516 166.875 72.7188 166.883 72.4766 166.883C71.6016 166.883 71.2266 166.461 71.2266 165.469V160.703H73.1016V159.578H71.2266V157.398H69.8828ZM75.2109 168H76.5547V163.016C76.5547 161.594 77.3828 160.641 78.8906 160.641C80.1641 160.641 80.8359 161.383 80.8359 162.875V168H82.1797V162.547C82.1797 160.57 81.0547 159.43 79.2734 159.43C77.9844 159.43 77.1016 159.977 76.6797 160.906H76.5547V156.234H75.2109V168ZM87.9922 160.617C89.3281 160.617 90.2188 161.602 90.25 163.094H85.6094C85.7109 161.602 86.6484 160.617 87.9922 160.617ZM90.2109 165.82C89.8594 166.562 89.125 166.961 88.0391 166.961C86.6094 166.961 85.6797 165.906 85.6094 164.242V164.18H91.6641V163.664C91.6641 161.047 90.2812 159.43 88.0078 159.43C85.6953 159.43 84.2109 161.148 84.2109 163.797C84.2109 166.461 85.6719 168.148 88.0078 168.148C89.8516 168.148 91.1484 167.266 91.5547 165.82H90.2109ZM105.258 162.156C105.023 160.656 103.773 159.43 101.727 159.43C99.3672 159.43 97.8672 161.133 97.8672 163.758C97.8672 166.438 99.375 168.148 101.734 168.148C103.758 168.148 105.016 167.008 105.258 165.461H103.898C103.648 166.414 102.859 166.938 101.727 166.938C100.227 166.938 99.2578 165.703 99.2578 163.758C99.2578 161.852 100.211 160.641 101.727 160.641C102.938 160.641 103.68 161.32 103.898 162.156H105.258ZM110.703 168.148C113.102 168.148 114.586 166.492 114.586 163.789C114.586 161.078 113.102 159.43 110.703 159.43C108.305 159.43 106.82 161.078 106.82 163.789C106.82 166.492 108.305 168.148 110.703 168.148ZM110.703 166.938C109.109 166.938 108.211 165.781 108.211 163.789C108.211 161.789 109.109 160.641 110.703 160.641C112.297 160.641 113.195 161.789 113.195 163.789C113.195 165.781 112.297 166.938 110.703 166.938ZM116.695 168H118.039V162.781C118.039 161.594 118.891 160.641 119.992 160.641C121.055 160.641 121.75 161.281 121.75 162.281V168H123.094V162.586C123.094 161.516 123.875 160.641 125.047 160.641C126.234 160.641 126.82 161.25 126.82 162.492V168H128.164V162.18C128.164 160.414 127.203 159.43 125.484 159.43C124.32 159.43 123.359 160.016 122.906 160.906H122.781C122.391 160.031 121.594 159.43 120.453 159.43C119.328 159.43 118.484 159.969 118.102 160.906H117.977V159.578H116.695V168ZM134.719 159.43C133.57 159.43 132.562 160.016 132.023 160.984H131.898V159.578H130.617V170.812H131.961V166.734H132.086C132.547 167.625 133.516 168.148 134.719 168.148C136.859 168.148 138.258 166.422 138.258 163.789C138.258 161.141 136.867 159.43 134.719 159.43ZM134.398 166.938C132.883 166.938 131.922 165.719 131.922 163.789C131.922 161.852 132.883 160.641 134.406 160.641C135.945 160.641 136.867 161.82 136.867 163.789C136.867 165.758 135.945 166.938 134.398 166.938ZM142.961 166.969C141.984 166.969 141.258 166.469 141.258 165.609C141.258 164.766 141.82 164.32 143.102 164.234L145.367 164.086V164.859C145.367 166.062 144.344 166.969 142.961 166.969ZM142.711 168.148C143.836 168.148 144.758 167.656 145.305 166.758H145.43V168H146.711V162.234C146.711 160.484 145.562 159.43 143.508 159.43C141.711 159.43 140.383 160.32 140.203 161.672H141.562C141.75 161.008 142.453 160.625 143.461 160.625C144.719 160.625 145.367 161.195 145.367 162.234V163L142.938 163.148C140.977 163.266 139.867 164.133 139.867 165.641C139.867 167.18 141.078 168.148 142.711 168.148ZM149.195 168H150.539V163.016C150.539 161.539 151.406 160.641 152.75 160.641C154.094 160.641 154.734 161.359 154.734 162.875V168H156.078V162.547C156.078 160.547 155.023 159.43 153.133 159.43C151.844 159.43 151.023 159.977 150.602 160.906H150.477V159.578H149.195V168ZM158.945 171.047C160.438 171.047 161.109 170.469 161.828 168.516L165.117 159.578H163.688L161.383 166.508H161.258L158.945 159.578H157.492L160.609 168.008L160.453 168.508C160.102 169.523 159.68 169.891 158.906 169.891C158.719 169.891 158.508 169.883 158.344 169.852V171C158.531 171.031 158.766 171.047 158.945 171.047ZM168.031 160.938L169.289 156.727H167.766L167.055 160.938H168.031ZM170.438 161.883C170.438 163.102 171.156 163.781 172.734 164.164L174.18 164.516C175.078 164.734 175.516 165.125 175.516 165.703C175.516 166.477 174.703 167.016 173.57 167.016C172.492 167.016 171.82 166.562 171.594 165.852H170.211C170.359 167.25 171.648 168.148 173.523 168.148C175.438 168.148 176.898 167.109 176.898 165.602C176.898 164.391 176.133 163.703 174.547 163.32L173.25 163.008C172.258 162.766 171.789 162.406 171.789 161.828C171.789 161.078 172.57 160.57 173.57 160.57C174.586 160.57 175.242 161.016 175.422 161.688H176.75C176.57 160.305 175.344 159.43 173.578 159.43C171.789 159.43 170.438 160.484 170.438 161.883ZM51.3906 196H52.7344V188.703H54.6641V187.578H52.7344V186.68C52.7344 185.758 53.1406 185.289 54.1094 185.289C54.3516 185.289 54.5781 185.297 54.7422 185.328V184.234C54.4609 184.18 54.1641 184.156 53.8359 184.156C52.2344 184.156 51.3906 184.961 51.3906 186.641V187.578H49.9922V188.703H51.3906V196ZM56.6562 196H58V187.578H56.6562V196ZM57.3281 185.867C57.8438 185.867 58.2656 185.445 58.2656 184.93C58.2656 184.414 57.8438 183.992 57.3281 183.992C56.8125 183.992 56.3906 184.414 56.3906 184.93C56.3906 185.445 56.8125 185.867 57.3281 185.867ZM60.5625 196H61.9062V191.016C61.9062 189.539 62.7734 188.641 64.1172 188.641C65.4609 188.641 66.1016 189.359 66.1016 190.875V196H67.4453V190.547C67.4453 188.547 66.3906 187.43 64.5 187.43C63.2109 187.43 62.3906 187.977 61.9688 188.906H61.8438V187.578H60.5625V196ZM72.5 194.969C71.5234 194.969 70.7969 194.469 70.7969 193.609C70.7969 192.766 71.3594 192.32 72.6406 192.234L74.9062 192.086V192.859C74.9062 194.062 73.8828 194.969 72.5 194.969ZM72.25 196.148C73.375 196.148 74.2969 195.656 74.8438 194.758H74.9688V196H76.25V190.234C76.25 188.484 75.1016 187.43 73.0469 187.43C71.25 187.43 69.9219 188.32 69.7422 189.672H71.1016C71.2891 189.008 71.9922 188.625 73 188.625C74.2578 188.625 74.9062 189.195 74.9062 190.234V191L72.4766 191.148C70.5156 191.266 69.4062 192.133 69.4062 193.641C69.4062 195.18 70.6172 196.148 72.25 196.148ZM78.7344 196H80.0781V191.016C80.0781 189.539 80.9453 188.641 82.2891 188.641C83.6328 188.641 84.2734 189.359 84.2734 190.875V196H85.6172V190.547C85.6172 188.547 84.5625 187.43 82.6719 187.43C81.3828 187.43 80.5625 187.977 80.1406 188.906H80.0156V187.578H78.7344V196ZM95.0469 190.156C94.8125 188.656 93.5625 187.43 91.5156 187.43C89.1562 187.43 87.6562 189.133 87.6562 191.758C87.6562 194.438 89.1641 196.148 91.5234 196.148C93.5469 196.148 94.8047 195.008 95.0469 193.461H93.6875C93.4375 194.414 92.6484 194.938 91.5156 194.938C90.0156 194.938 89.0469 193.703 89.0469 191.758C89.0469 189.852 90 188.641 91.5156 188.641C92.7266 188.641 93.4688 189.32 93.6875 190.156H95.0469ZM97.0625 196H98.4062V187.578H97.0625V196ZM97.7344 185.867C98.25 185.867 98.6719 185.445 98.6719 184.93C98.6719 184.414 98.25 183.992 97.7344 183.992C97.2188 183.992 96.7969 184.414 96.7969 184.93C96.7969 185.445 97.2188 185.867 97.7344 185.867ZM103.562 194.969C102.586 194.969 101.859 194.469 101.859 193.609C101.859 192.766 102.422 192.32 103.703 192.234L105.969 192.086V192.859C105.969 194.062 104.945 194.969 103.562 194.969ZM103.312 196.148C104.438 196.148 105.359 195.656 105.906 194.758H106.031V196H107.312V190.234C107.312 188.484 106.164 187.43 104.109 187.43C102.312 187.43 100.984 188.32 100.805 189.672H102.164C102.352 189.008 103.055 188.625 104.062 188.625C105.32 188.625 105.969 189.195 105.969 190.234V191L103.539 191.148C101.578 191.266 100.469 192.133 100.469 193.641C100.469 195.18 101.68 196.148 103.312 196.148ZM109.875 196H111.219V184.234H109.875V196ZM118.148 189.883C118.148 191.102 118.867 191.781 120.445 192.164L121.891 192.516C122.789 192.734 123.227 193.125 123.227 193.703C123.227 194.477 122.414 195.016 121.281 195.016C120.203 195.016 119.531 194.562 119.305 193.852H117.922C118.07 195.25 119.359 196.148 121.234 196.148C123.148 196.148 124.609 195.109 124.609 193.602C124.609 192.391 123.844 191.703 122.258 191.32L120.961 191.008C119.969 190.766 119.5 190.406 119.5 189.828C119.5 189.078 120.281 188.57 121.281 188.57C122.297 188.57 122.953 189.016 123.133 189.688H124.461C124.281 188.305 123.055 187.43 121.289 187.43C119.5 187.43 118.148 188.484 118.148 189.883ZM133.531 187.578H132.188V192.562C132.188 194.039 131.375 194.922 129.891 194.922C128.547 194.922 127.984 194.219 127.984 192.703V187.578H126.641V193.031C126.641 195.023 127.625 196.148 129.516 196.148C130.805 196.148 131.703 195.617 132.125 194.68H132.25V196H133.531V187.578ZM143.031 190.156C142.797 188.656 141.547 187.43 139.5 187.43C137.141 187.43 135.641 189.133 135.641 191.758C135.641 194.438 137.148 196.148 139.508 196.148C141.531 196.148 142.789 195.008 143.031 193.461H141.672C141.422 194.414 140.633 194.938 139.5 194.938C138 194.938 137.031 193.703 137.031 191.758C137.031 189.852 137.984 188.641 139.5 188.641C140.711 188.641 141.453 189.32 141.672 190.156H143.031ZM151.984 190.156C151.75 188.656 150.5 187.43 148.453 187.43C146.094 187.43 144.594 189.133 144.594 191.758C144.594 194.438 146.102 196.148 148.461 196.148C150.484 196.148 151.742 195.008 151.984 193.461H150.625C150.375 194.414 149.586 194.938 148.453 194.938C146.953 194.938 145.984 193.703 145.984 191.758C145.984 189.852 146.938 188.641 148.453 188.641C149.664 188.641 150.406 189.32 150.625 190.156H151.984ZM157.328 188.617C158.664 188.617 159.555 189.602 159.586 191.094H154.945C155.047 189.602 155.984 188.617 157.328 188.617ZM159.547 193.82C159.195 194.562 158.461 194.961 157.375 194.961C155.945 194.961 155.016 193.906 154.945 192.242V192.18H161V191.664C161 189.047 159.617 187.43 157.344 187.43C155.031 187.43 153.547 189.148 153.547 191.797C153.547 194.461 155.008 196.148 157.344 196.148C159.188 196.148 160.484 195.266 160.891 193.82H159.547ZM162.914 189.883C162.914 191.102 163.633 191.781 165.211 192.164L166.656 192.516C167.555 192.734 167.992 193.125 167.992 193.703C167.992 194.477 167.18 195.016 166.047 195.016C164.969 195.016 164.297 194.562 164.07 193.852H162.688C162.836 195.25 164.125 196.148 166 196.148C167.914 196.148 169.375 195.109 169.375 193.602C169.375 192.391 168.609 191.703 167.023 191.32L165.727 191.008C164.734 190.766 164.266 190.406 164.266 189.828C164.266 189.078 165.047 188.57 166.047 188.57C167.062 188.57 167.719 189.016 167.898 189.688H169.227C169.047 188.305 167.82 187.43 166.055 187.43C164.266 187.43 162.914 188.484 162.914 189.883ZM171.133 189.883C171.133 191.102 171.852 191.781 173.43 192.164L174.875 192.516C175.773 192.734 176.211 193.125 176.211 193.703C176.211 194.477 175.398 195.016 174.266 195.016C173.188 195.016 172.516 194.562 172.289 193.852H170.906C171.055 195.25 172.344 196.148 174.219 196.148C176.133 196.148 177.594 195.109 177.594 193.602C177.594 192.391 176.828 191.703 175.242 191.32L173.945 191.008C172.953 190.766 172.484 190.406 172.484 189.828C172.484 189.078 173.266 188.57 174.266 188.57C175.281 188.57 175.938 189.016 176.117 189.688H177.445C177.266 188.305 176.039 187.43 174.273 187.43C172.484 187.43 171.133 188.484 171.133 189.883Z" fill="#202020"/>
<defs>
<linearGradient id="paint0_linear" x1="99.6378" y1="84.5842" x2="151.638" y2="32.5842" gradientUnits="userSpaceOnUse">
<stop stop-color="#CBF1FF" stop-opacity="0.4"/>
<stop offset="1" stop-color="#05ACFF"/>
</linearGradient>
<clipPath id="clip0">
<rect x="84" y="25" width="60" height="50" fill="white"/>
</clipPath>
</defs>
</svg>
