<svg width="555" height="500" viewBox="0 0 555 500" fill="none" xmlns="http://www.w3.org/2000/svg">
<path opacity="0.5" d="M304.468 54.1182C216.074 93.8267 176.624 197.724 216.402 286.147C256.179 374.57 359.96 414.033 448.354 374.243C536.748 334.452 576.198 230.637 536.421 142.214C496.644 53.7907 392.781 14.4097 304.468 54.1182Z" fill="url(#paint0_linear)"/>
<path d="M85.0988 77.3391C65.6574 86.1113 56.9579 108.949 65.733 128.384C74.5082 147.819 97.3537 156.516 116.795 147.744C136.237 138.972 144.936 116.134 136.161 96.6985C127.461 77.2635 104.54 68.5669 85.0988 77.3391Z" fill="url(#paint1_linear)"/>
<path d="M347.208 246.623C336.978 251.208 332.394 263.244 337.059 273.478C341.643 283.712 353.674 288.297 363.905 283.63C374.136 279.045 378.719 267.01 374.054 256.776C369.389 246.623 357.357 242.039 347.208 246.623Z" fill="url(#paint2_linear)"/>
<path fill-rule="evenodd" clip-rule="evenodd" d="M225.241 134.436C232.116 134.682 239.564 147.536 244.066 168.577H206.007C210.509 147.618 217.875 134.764 224.75 134.436H225.241ZM246.685 154.331C248.076 158.671 249.304 163.501 250.368 168.577H291.209C278.932 150.811 259.617 138.284 237.272 135.173C240.546 139.185 243.738 145.243 246.685 154.331ZM204.779 174.8H245.293C247.094 185.116 248.24 196.987 248.322 210.169H201.669C201.833 197.069 202.979 185.116 204.779 174.8ZM224.996 291.878C217.957 291.878 210.427 278.697 205.844 257.164H244.148C239.564 278.697 232.034 291.878 224.996 291.878ZM248.322 216.309H201.669C201.833 229.082 202.897 240.789 204.698 250.942H245.375C247.094 240.789 248.24 229.163 248.322 216.309ZM295.547 250.942H251.677C253.396 240.298 254.46 228.508 254.542 216.309H305.041C304.55 228.836 301.195 240.626 295.547 250.942ZM254.624 210.169C254.46 197.642 253.396 185.689 251.595 174.8H295.22C301.113 185.361 304.632 197.397 305.123 210.169H254.624ZM157.145 250.942H198.395C196.595 240.298 195.613 228.508 195.449 216.309H147.569C148.06 228.836 151.497 240.626 157.145 250.942ZM199.541 257.164C200.687 262.486 201.915 267.48 203.388 271.983C206.253 280.825 209.363 286.884 212.555 290.814C191.029 287.048 172.614 274.603 160.91 257.164H199.541ZM250.532 257.164C249.468 262.486 248.158 267.48 246.685 271.983C243.739 281.235 240.383 287.293 237.191 291.305C259.944 288.194 279.505 275.34 291.782 257.164H250.532ZM199.623 168.577C200.687 163.501 201.915 158.752 203.306 154.331C206.171 145.571 209.199 139.594 212.309 135.664C191.193 139.43 173.023 151.629 161.319 168.577H199.623ZM147.651 210.169C148.142 197.315 151.661 185.361 157.554 174.8H198.559C196.677 185.689 195.694 197.724 195.531 210.169H147.651Z" fill="url(#paint3_linear)"/>
<path d="M242.756 314.312C199.05 333.961 179.489 385.378 199.132 429.098C218.775 472.818 270.175 492.386 313.88 472.736C357.586 453.087 377.148 401.67 357.505 357.95C337.861 314.23 286.462 294.662 242.756 314.312ZM296.529 434.092C274.103 444.163 247.83 434.174 237.763 411.741C227.696 389.307 237.682 363.026 260.107 352.956C282.533 342.885 308.806 352.874 318.873 375.307C328.94 397.74 318.955 424.022 296.529 434.092Z" fill="url(#paint4_linear)"/>
<path d="M171.387 208.449H20.2983V401.67H171.387V208.449Z" fill="url(#paint5_linear)"/>
<path opacity="0.5" d="M240.546 332.242H171.632V323.972L155.344 335.353L171.632 346.733V338.464H240.546V332.242Z" fill="url(#paint6_linear)"/>
<path d="M171.386 352.464H239.892V344.195L256.179 355.576L239.892 366.874V358.687H171.386V352.464Z" fill="url(#paint7_linear)"/>
<path opacity="0.5" fill-rule="evenodd" clip-rule="evenodd" d="M58.1926 254.298C58.1926 257.011 55.994 259.211 53.2819 259.211C50.5697 259.211 48.3711 257.011 48.3711 254.298C48.3711 251.585 50.5697 249.386 53.2819 249.386C55.994 249.386 58.1926 251.585 58.1926 254.298ZM70.7972 251.023H139.712V257.573H70.7972V251.023ZM139.712 271.246H70.7972V277.796H139.712V271.246ZM58.1926 274.521C58.1926 277.234 55.994 279.433 53.2819 279.433C50.5697 279.433 48.3711 277.234 48.3711 274.521C48.3711 271.808 50.5697 269.609 53.2819 269.609C55.994 269.609 58.1926 271.808 58.1926 274.521ZM139.712 291.469H70.7972V298.019H139.712V291.469ZM58.1926 294.744C58.1926 297.457 55.994 299.656 53.2819 299.656C50.5697 299.656 48.3711 297.457 48.3711 294.744C48.3711 292.031 50.5697 289.831 53.2819 289.831C55.994 289.831 58.1926 292.031 58.1926 294.744ZM139.712 311.692H70.7972V318.241H139.712V311.692ZM58.1926 314.966C58.1926 317.68 55.994 319.879 53.2819 319.879C50.5697 319.879 48.3711 317.68 48.3711 314.966C48.3711 312.253 50.5697 310.054 53.2819 310.054C55.994 310.054 58.1926 312.253 58.1926 314.966ZM139.712 331.914H70.7972V338.464H139.712V331.914ZM58.1926 335.189C58.1926 337.902 55.994 340.102 53.2819 340.102C50.5697 340.102 48.3711 337.902 48.3711 335.189C48.3711 332.476 50.5697 330.277 53.2819 330.277C55.994 330.277 58.1926 332.476 58.1926 335.189ZM139.712 352.301H70.7972V358.851H139.712V352.301ZM58.1926 355.576C58.1926 358.289 55.994 360.488 53.2819 360.488C50.5697 360.488 48.3711 358.289 48.3711 355.576C48.3711 352.863 50.5697 350.663 53.2819 350.663C55.994 350.663 58.1926 352.863 58.1926 355.576Z" fill="url(#paint8_linear)"/>
<defs>
<linearGradient id="paint0_linear" x1="194.371" y1="106.987" x2="494.549" y2="317.95" gradientUnits="userSpaceOnUse">
<stop offset="0.380208" stop-color="#3FE9AC" stop-opacity="0"/>
<stop offset="1" stop-color="#3FE9AC" stop-opacity="0.3"/>
</linearGradient>
<linearGradient id="paint1_linear" x1="72.5695" y1="164.764" x2="162.355" y2="105.98" gradientUnits="userSpaceOnUse">
<stop stop-color="white" stop-opacity="0"/>
<stop offset="0.479167" stop-color="#F44336" stop-opacity="0.1"/>
<stop offset="1" stop-color="#F44336" stop-opacity="0.3"/>
<stop offset="1" stop-color="#F44336" stop-opacity="0.3"/>
</linearGradient>
<linearGradient id="paint2_linear" x1="340.628" y1="292.61" x2="387.848" y2="261.678" gradientUnits="userSpaceOnUse">
<stop stop-color="white" stop-opacity="0"/>
<stop offset="0.479167" stop-color="#F44336" stop-opacity="0.1"/>
<stop offset="1" stop-color="#F44336" stop-opacity="0.3"/>
<stop offset="1" stop-color="#F44336" stop-opacity="0.3"/>
</linearGradient>
<linearGradient id="paint3_linear" x1="115.802" y1="158.332" x2="340.888" y2="270.15" gradientUnits="userSpaceOnUse">
<stop stop-color="#8F5FEB" stop-opacity="0.2"/>
<stop offset="1" stop-color="#7C57C2" stop-opacity="0"/>
</linearGradient>
<linearGradient id="paint4_linear" x1="255.5" y1="353" x2="384.547" y2="531.966" gradientUnits="userSpaceOnUse">
<stop stop-color="#7C57C2" stop-opacity="0"/>
<stop offset="1" stop-color="#8F5FEB" stop-opacity="0.2"/>
</linearGradient>
<linearGradient id="paint5_linear" x1="171" y1="311.5" x2="22.003" y2="325.774" gradientUnits="userSpaceOnUse">
<stop stop-color="#05ACFF" stop-opacity="0"/>
<stop offset="1" stop-color="#05ACFF" stop-opacity="0.2"/>
</linearGradient>
<linearGradient id="paint6_linear" x1="153.758" y1="328.402" x2="167.494" y2="364.549" gradientUnits="userSpaceOnUse">
<stop offset="0.1875" stop-color="#3FE9AC" stop-opacity="0.3"/>
<stop offset="1" stop-color="#3FE9AC" stop-opacity="0"/>
</linearGradient>
<linearGradient id="paint7_linear" x1="169.808" y1="348.609" x2="183.507" y2="384.614" gradientUnits="userSpaceOnUse">
<stop offset="0.380208" stop-color="#3FE9AC" stop-opacity="0"/>
<stop offset="1" stop-color="#3FE9AC" stop-opacity="0.3"/>
</linearGradient>
<linearGradient id="paint8_linear" x1="48" y1="296" x2="142.5" y2="295.976" gradientUnits="userSpaceOnUse">
<stop stop-color="#05ACFF" stop-opacity="0.5"/>
<stop offset="1" stop-color="#05ACFF" stop-opacity="0"/>
</linearGradient>
</defs>
</svg>
